<svg width="41" height="40" viewBox="0 0 41 40" fill="none" xmlns="http://www.w3.org/2000/svg">
<path d="M25.25 16.5L20.25 21.5L17.75 19M31.5 17.9563C31.5 26.1666 25.2899 29.8476 22.6572 31.0392L22.6539 31.0407C22.377 31.166 22.2382 31.2288 21.9236 31.2829C21.7243 31.3171 21.2769 31.3171 21.0777 31.2829C20.7618 31.2286 20.6215 31.1656 20.3424 31.0392C17.7097 29.8476 11.5 26.1666 11.5 17.9563V13.0002C11.5 11.6001 11.5 10.8995 11.7725 10.3647C12.0122 9.89434 12.3943 9.51217 12.8647 9.27248C13.3995 9 14.1001 9 15.5002 9H27.5002C28.9004 9 29.5995 9 30.1342 9.27248C30.6046 9.51217 30.9881 9.89434 31.2278 10.3647C31.5 10.899 31.5 11.5987 31.5 12.9961V17.9563Z" stroke-linecap="round" stroke-linejoin="round"/>
</svg>
