<svg width="41" height="40" viewBox="0 0 41 40" fill="none" xmlns="http://www.w3.org/2000/svg">
<path d="M23.5714 8V13.3333C23.5714 13.687 23.7069 14.0261 23.948 14.2761C24.1891 14.5262 24.5162 14.6667 24.8571 14.6667H30M23.5714 8H14.5714C13.8894 8 13.2354 8.28095 12.7532 8.78105C12.2709 9.28115 12 9.95942 12 10.6667V29.3333C12 30.0406 12.2709 30.7189 12.7532 31.219C13.2354 31.719 13.8894 32 14.5714 32H27.4286C28.1106 32 28.7646 31.719 29.2468 31.219C29.7291 30.7189 30 30.0406 30 29.3333V14.6667M23.5714 8L30 14.6667M19.7143 22.6667H21V28H22.2857M21 18.6667H21.0129" stroke-linecap="round" stroke-linejoin="round"/>
</svg>
