<svg width="41" height="40" viewBox="0 0 41 40" fill="none" xmlns="http://www.w3.org/2000/svg">
<path d="M18.5864 21.208C19.1046 21.9016 19.7659 22.4755 20.5252 22.8907C21.2845 23.306 22.1242 23.5529 22.9872 23.6148C23.8502 23.6767 24.7165 23.552 25.5272 23.2493C26.3379 22.9466 27.074 22.4729 27.6857 21.8604L31.3062 18.2363C32.4053 17.0971 33.0135 15.5713 32.9998 13.9876C32.986 12.4039 32.3514 10.889 31.2327 9.76911C30.1139 8.64922 28.6005 8.01399 27.0184 8.00023C25.4363 7.98647 23.912 8.59528 22.774 9.69554L20.6983 11.7613M23.4136 18.792C22.8954 18.0984 22.2341 17.5245 21.4748 17.1093C20.7155 16.694 19.8758 16.4471 19.0128 16.3852C18.1498 16.3233 17.2835 16.448 16.4728 16.7507C15.6621 17.0534 14.926 17.5271 14.3143 18.1396L10.6938 21.7637C9.59468 22.9029 8.98648 24.4287 9.00023 26.0124C9.01398 27.5961 9.64857 29.111 10.7673 30.2309C11.8861 31.3508 13.3995 31.986 14.9816 31.9998C16.5637 32.0135 18.0879 31.4047 19.226 30.3045L21.2896 28.2387" stroke-linecap="round" stroke-linejoin="round"/>
</svg>
