<svg width="41" height="40" viewBox="0 0 41 40" fill="none" xmlns="http://www.w3.org/2000/svg">
<path d="M20.8947 26.5281L17.2632 24.6114M17.2632 24.6114L10 28.4448V11.8334L17.2632 8M17.2632 24.6114V8M17.2632 8L24.5263 11.8334M24.5263 11.8334L31.7895 8V17.5835M24.5263 11.8334V18.8613M29.3684 25.8892V25.902M31.9359 28.599C32.4439 28.0629 32.7899 27.3799 32.9301 26.6363C33.0704 25.8926 32.9985 25.1218 32.7237 24.4213C32.4488 23.7207 31.9834 23.122 31.3861 22.7007C30.7889 22.2794 30.0867 22.0546 29.3684 22.0546C28.6501 22.0546 27.9479 22.2794 27.3507 22.7007C26.7535 23.122 26.288 23.7207 26.0132 24.4213C25.7383 25.1218 25.6665 25.8926 25.8067 26.6363C25.9469 27.3799 26.2929 28.0629 26.8009 28.599C27.3069 29.1344 28.1627 29.9343 29.3684 31C30.6407 29.8628 31.4977 29.0629 31.9359 28.599Z" stroke-linecap="round" stroke-linejoin="round"/>
</svg>
